<svg viewBox="0 0 40 40" fill="none" xmlns="http://www.w3.org/2000/svg">
  <!-- Background -->
  <rect width="40" height="40" rx="8" fill="#ffffff"/>
  <!-- Sun rays - top half -->
  <path d="M20 20 L20 4 A16 16 0 0 1 28 6 Z" fill="#0EA5E9" />
  <path d="M20 20 L28 6 A16 16 0 0 1 34 12 Z" fill="#0EA5E9" />
  <path d="M20 20 L34 12 A16 16 0 0 1 36 20 Z" fill="#0EA5E9" />
  <path d="M20 20 L20 4 A16 16 0 0 0 12 6 Z" fill="#0EA5E9" />
  <path d="M20 20 L12 6 A16 16 0 0 0 6 12 Z" fill="#0EA5E9" />
  <path d="M20 20 L6 12 A16 16 0 0 0 4 20 Z" fill="#0EA5E9" />

  <!-- Sun center -->
  <circle cx="20" cy="20" r="6" fill="#F59E0B" />

  <!-- Green waves - bottom half -->
  <path d="M20 20 L4 20 A16 16 0 0 0 6 28 Z" fill="#22C55E" />
  <path d="M20 20 L6 28 A16 16 0 0 0 12 34 Z" fill="#22C55E" />
  <path d="M20 20 L12 34 A16 16 0 0 0 17 36 Z" fill="#22C55E" />
  <path d="M20 20 L17 36 A16 16 0 0 0 23 36 Z" fill="#22C55E" />
  <path d="M20 20 L36 20 A16 16 0 0 1 34 28 Z" fill="#22C55E" />
  <path d="M20 20 L34 28 A16 16 0 0 1 28 34 Z" fill="#22C55E" />
  <path d="M20 20 L28 34 A16 16 0 0 1 23 36 Z" fill="#22C55E" />
</svg>
